<?xml version="1.0" encoding="UTF-8" standalone="no"?>
<svg
   xmlns:dc="http://purl.org/dc/elements/1.1/"
   xmlns:cc="http://creativecommons.org/ns#"
   xmlns:rdf="http://www.w3.org/1999/02/22-rdf-syntax-ns#"
   xmlns:svg="http://www.w3.org/2000/svg"
   xmlns="http://www.w3.org/2000/svg"
   xmlns:xlink="http://www.w3.org/1999/xlink"
   xmlns:sodipodi="http://sodipodi.sourceforge.net/DTD/sodipodi-0.dtd"
   xmlns:inkscape="http://www.inkscape.org/namespaces/inkscape"
   width="48"
   height="48"
   id="svg3100"
   version="1.1"
   inkscape:version="0.48.4 r9939"
   sodipodi:docname="document-save-all.svg"
   inkscape:export-filename="C:\Users\oreilly\Desktop\document-save-all32x32.png"
   inkscape:export-xdpi="58.821125"
   inkscape:export-ydpi="58.821125">
  <sodipodi:namedview
     pagecolor="#ffffff"
     bordercolor="#666666"
     borderopacity="1"
     objecttolerance="10"
     gridtolerance="10"
     guidetolerance="10"
     inkscape:pageopacity="0"
     inkscape:pageshadow="2"
     inkscape:window-width="1920"
     inkscape:window-height="1138"
     id="namedview3213"
     showgrid="false"
     inkscape:zoom="19.8125"
     inkscape:cx="24"
     inkscape:cy="24"
     inkscape:window-x="-8"
     inkscape:window-y="-8"
     inkscape:window-maximized="1"
     inkscape:current-layer="g3171" />
  <defs
     id="defs3102">
    <radialGradient
       r="117.14286"
       fy="486.64789"
       fx="605.71429"
       cy="486.64789"
       cx="605.71429"
       gradientTransform="matrix(-2.774389,0,0,1.969706,112.7623,-872.8854)"
       gradientUnits="userSpaceOnUse"
       id="radialGradient5031"
       xlink:href="#linearGradient5060" />
    <linearGradient
       id="linearGradient5060">
      <stop
         stop-color="black"
         id="stop5062"
         offset="0" />
      <stop
         stop-color="black"
         stop-opacity="0"
         id="stop5064"
         offset="1" />
    </linearGradient>
    <radialGradient
       r="117.14286"
       fy="486.64789"
       fx="605.71429"
       cy="486.64789"
       cx="605.71429"
       gradientTransform="matrix(2.774389,0,0,1.969706,-1891.633,-872.8854)"
       gradientUnits="userSpaceOnUse"
       id="radialGradient5029"
       xlink:href="#linearGradient5060" />
    <linearGradient
       id="linearGradient5048">
      <stop
         stop-color="black"
         stop-opacity="0"
         id="stop5050"
         offset="0" />
      <stop
         stop-color="black"
         offset="0.5"
         id="stop5056" />
      <stop
         stop-color="black"
         stop-opacity="0"
         id="stop5052"
         offset="1" />
    </linearGradient>
    <linearGradient
       y2="1"
       x2="0.378698"
       y1="0"
       x1="0.378698"
       id="linearGradient5027"
       xlink:href="#linearGradient5048" />
    <linearGradient
       id="linearGradient6925">
      <stop
         stop-color="#204a87"
         id="stop6927"
         offset="0" />
      <stop
         stop-color="#204a87"
         stop-opacity="0"
         id="stop6929"
         offset="1" />
    </linearGradient>
    <linearGradient
       id="linearGradient6901">
      <stop
         stop-color="#3465a4"
         id="stop6903"
         offset="0" />
      <stop
         stop-color="#3465a4"
         stop-opacity="0"
         id="stop6905"
         offset="1" />
    </linearGradient>
    <linearGradient
       id="linearGradient4991">
      <stop
         stop-color="#ffffff"
         id="stop4993"
         offset="0" />
      <stop
         stop-color="#ffffff"
         stop-opacity="0"
         id="stop4995"
         offset="1" />
    </linearGradient>
    <radialGradient
       gradientUnits="userSpaceOnUse"
       gradientTransform="matrix(-1.314471,-0.01006312,-0.01022964,1.336221,46.22108,-4.909887)"
       r="19.0625"
       fy="6.457675"
       fx="23.447077"
       cy="6.457675"
       cx="23.447077"
       id="radialGradient4997"
       xlink:href="#linearGradient4991" />
    <linearGradient
       id="linearGradient2187">
      <stop
         stop-color="#ffffff"
         offset="0"
         id="stop2189" />
      <stop
         stop-color="#ffffff"
         stop-opacity="0"
         offset="1"
         id="stop2191" />
    </linearGradient>
    <linearGradient
       y2="8.9536016"
       x2="6.8139185"
       y1="23.802767"
       x1="25.234421"
       id="linearGradient1764"
       xlink:href="#linearGradient2187"
       gradientTransform="scale(1.0525027,0.95011636)"
       gradientUnits="userSpaceOnUse" />
    <linearGradient
       id="linearGradient8662">
      <stop
         stop-color="#000000"
         id="stop8664"
         offset="0" />
      <stop
         stop-color="#000000"
         stop-opacity="0"
         id="stop8666"
         offset="1" />
    </linearGradient>
    <radialGradient
       gradientUnits="userSpaceOnUse"
       gradientTransform="matrix(1.000000,-7.816467e-32,-1.132409e-32,0.536723,-5.897962e-14,16.87306)"
       r="15.644737"
       fy="36.421127"
       fx="24.837126"
       cy="36.421127"
       cx="24.837126"
       id="radialGradient8668"
       xlink:href="#linearGradient8662" />
    <linearGradient
       id="linearGradient2555">
      <stop
         stop-color="#ffffff"
         offset="0"
         id="stop2557" />
      <stop
         stop-color="#e6e6e6"
         id="stop2561"
         offset="0.5" />
      <stop
         stop-color="#ffffff"
         offset="0.75"
         id="stop2563" />
      <stop
         stop-color="#e1e1e1"
         id="stop2565"
         offset="0.841667" />
      <stop
         stop-color="#ffffff"
         offset="1"
         id="stop2559" />
    </linearGradient>
    <linearGradient
       id="linearGradient4274">
      <stop
         stop-color="#ffffff"
         stop-opacity="0.254902"
         id="stop4276"
         offset="0" />
      <stop
         stop-color="#ffffff"
         id="stop4278"
         offset="1" />
    </linearGradient>
    <linearGradient
       id="linearGradient4264">
      <stop
         stop-color="#000000"
         offset="0"
         id="stop4266" />
      <stop
         stop-color="#000000"
         stop-opacity="0"
         offset="1"
         id="stop4268" />
    </linearGradient>
    <linearGradient
       id="linearGradient4254">
      <stop
         stop-color="#ffffff"
         offset="0"
         id="stop4256" />
      <stop
         stop-color="#ffffff"
         stop-opacity="0"
         offset="1"
         id="stop4258" />
    </linearGradient>
    <linearGradient
       id="linearGradient4244">
      <stop
         stop-color="#e4e4e4"
         offset="0"
         id="stop4246" />
      <stop
         stop-color="#d3d3d3"
         offset="1"
         id="stop4248" />
    </linearGradient>
    <linearGradient
       id="linearGradient4236">
      <stop
         stop-color="#eeeeee"
         offset="0"
         id="stop4238" />
      <stop
         stop-color="#eeeeee"
         stop-opacity="0"
         offset="1"
         id="stop4240" />
    </linearGradient>
    <linearGradient
       id="linearGradient4228">
      <stop
         stop-color="#bbbbbb"
         offset="0"
         id="stop4230" />
      <stop
         stop-color="#9f9f9f"
         offset="1"
         id="stop4232" />
    </linearGradient>
    <linearGradient
       id="linearGradient4184">
      <stop
         stop-color="#838383"
         offset="0"
         id="stop4186" />
      <stop
         stop-color="#bbbbbb"
         stop-opacity="0"
         offset="1"
         id="stop4188" />
    </linearGradient>
    <linearGradient
       xlink:href="#linearGradient4184"
       id="linearGradient4209"
       x1="0"
       y1="0.499999"
       x2="1"
       y2="0.499999" />
    <linearGradient
       xlink:href="#linearGradient4228"
       id="linearGradient4234"
       x1="0.103522"
       y1="0.171903"
       x2="0.786617"
       y2="1.156194" />
    <linearGradient
       xlink:href="#linearGradient4236"
       id="linearGradient4242"
       x1="0.341598"
       y1="1.116947"
       x2="0.337301"
       y2="0.257627" />
    <radialGradient
       xlink:href="#linearGradient4244"
       id="radialGradient4250"
       cx="15.571491"
       cy="2.958519"
       fx="15.571491"
       fy="2.958519"
       r="20.935817"
       gradientTransform="matrix(1.286242,0.781698,-0.710782,1.169552,-2.354348,0.248140)"
       gradientUnits="userSpaceOnUse" />
    <linearGradient
       xlink:href="#linearGradient4254"
       id="linearGradient4260"
       x1="0.211176"
       y1="-0.132599"
       x2="0.987758"
       y2="1.305315" />
    <radialGradient
       xlink:href="#linearGradient4264"
       id="radialGradient4270"
       cx="23.201941"
       cy="27.096155"
       fx="23.201941"
       fy="27.096155"
       r="23.555494"
       gradientTransform="matrix(1.000000,0.000000,0.000000,0.651032,-2.885063e-16,9.455693)"
       gradientUnits="userSpaceOnUse" />
    <linearGradient
       xlink:href="#linearGradient4274"
       id="linearGradient4272"
       x1="0.480538"
       y1="0.068767"
       x2="0.480538"
       y2="0.958281" />
    <linearGradient
       y2="-Infinity"
       x2="0.390688"
       y1="Infinity"
       x1="0.783401"
       id="linearGradient2553"
       xlink:href="#linearGradient2555" />
    <linearGradient
       y2="18.815033"
       x2="7.6419949"
       y1="17.795753"
       x1="13.02366"
       id="linearGradient6907"
       xlink:href="#linearGradient6901"
       gradientTransform="scale(1.1214553,0.89169848)"
       gradientUnits="userSpaceOnUse" />
    <linearGradient
       y2="23.911493"
       x2="5.9003066"
       y1="20.570042"
       x1="10.724792"
       id="linearGradient6931"
       xlink:href="#linearGradient6925"
       gradientTransform="scale(1.1214553,0.89169848)"
       gradientUnits="userSpaceOnUse" />
    <radialGradient
       y2="1"
       y1="1"
       gradientUnits="userSpaceOnUse"
       gradientTransform="matrix(1,0,0,0.536723,0,16.87306)"
       r="15.644737"
       fy="36.421127"
       fx="24.837126"
       cy="36.421127"
       cx="24.837126"
       id="svg_1"
       xlink:href="#linearGradient8662" />
    <radialGradient
       inkscape:collect="always"
       xlink:href="#linearGradient8662"
       id="radialGradient3645"
       gradientUnits="userSpaceOnUse"
       gradientTransform="matrix(1,0,0,0.536723,0,16.87306)"
       cx="24.837126"
       cy="36.421127"
       fx="24.837126"
       fy="36.421127"
       r="15.644737" />
    <linearGradient
       inkscape:collect="always"
       xlink:href="#linearGradient6901"
       id="linearGradient3647"
       x1="10.674565"
       y1="21.863738"
       x2="5.2929004"
       y2="22.883018"
       gradientTransform="scale(1.1214553,0.89169848)"
       gradientUnits="userSpaceOnUse" />
    <linearGradient
       inkscape:collect="always"
       xlink:href="#linearGradient6925"
       id="linearGradient3649"
       x1="8.3756977"
       y1="24.638027"
       x2="3.5512123"
       y2="27.979478"
       gradientTransform="scale(1.1214553,0.89169848)"
       gradientUnits="userSpaceOnUse" />
    <linearGradient
       inkscape:collect="always"
       xlink:href="#linearGradient2187"
       id="linearGradient3651"
       x1="22.731425"
       y1="27.620636"
       x2="4.3109217"
       y2="12.77147"
       gradientTransform="scale(1.0525028,0.95011621)"
       gradientUnits="userSpaceOnUse" />
    <radialGradient
       inkscape:collect="always"
       xlink:href="#linearGradient4991"
       id="radialGradient3653"
       gradientUnits="userSpaceOnUse"
       gradientTransform="matrix(-1.314471,-0.01006312,-0.01022964,1.336221,46.22108,-4.909887)"
       cx="23.447077"
       cy="6.457675"
       fx="23.447077"
       fy="6.457675"
       r="19.0625" />
    <radialGradient
       inkscape:collect="always"
       xlink:href="#linearGradient8662-9"
       id="radialGradient3645-5"
       gradientUnits="userSpaceOnUse"
       gradientTransform="matrix(1,0,0,0.536723,0,16.87306)"
       cx="24.837126"
       cy="36.421127"
       fx="24.837126"
       fy="36.421127"
       r="15.644737" />
    <linearGradient
       id="linearGradient8662-9">
      <stop
         stop-color="#000000"
         id="stop8664-8"
         offset="0" />
      <stop
         stop-color="#000000"
         stop-opacity="0"
         id="stop8666-4"
         offset="1" />
    </linearGradient>
    <linearGradient
       inkscape:collect="always"
       xlink:href="#linearGradient6901-7"
       id="linearGradient3647-0"
       x1="10.674565"
       y1="21.863737"
       x2="5.2929006"
       y2="22.883018"
       gradientTransform="scale(1.1214553,0.89169848)"
       gradientUnits="userSpaceOnUse" />
    <linearGradient
       id="linearGradient6901-7">
      <stop
         stop-color="#3465a4"
         id="stop6903-6"
         offset="0" />
      <stop
         stop-color="#3465a4"
         stop-opacity="0"
         id="stop6905-3"
         offset="1" />
    </linearGradient>
    <linearGradient
       inkscape:collect="always"
       xlink:href="#linearGradient6925-1"
       id="linearGradient3649-6"
       x1="8.3756981"
       y1="24.638027"
       x2="3.5512123"
       y2="27.979479"
       gradientTransform="scale(1.1214553,0.89169848)"
       gradientUnits="userSpaceOnUse" />
    <linearGradient
       id="linearGradient6925-1">
      <stop
         stop-color="#204a87"
         id="stop6927-5"
         offset="0" />
      <stop
         stop-color="#204a87"
         stop-opacity="0"
         id="stop6929-4"
         offset="1" />
    </linearGradient>
    <linearGradient
       inkscape:collect="always"
       xlink:href="#linearGradient2187-0"
       id="linearGradient3651-2"
       x1="22.731424"
       y1="27.620636"
       x2="4.3109217"
       y2="12.77147"
       gradientTransform="scale(1.0525028,0.95011621)"
       gradientUnits="userSpaceOnUse" />
    <linearGradient
       id="linearGradient2187-0">
      <stop
         stop-color="#ffffff"
         offset="0"
         id="stop2189-9" />
      <stop
         stop-color="#ffffff"
         stop-opacity="0"
         offset="1"
         id="stop2191-7" />
    </linearGradient>
    <radialGradient
       inkscape:collect="always"
       xlink:href="#linearGradient4991-7"
       id="radialGradient3653-3"
       gradientUnits="userSpaceOnUse"
       gradientTransform="matrix(-1.314471,-0.01006312,-0.01022964,1.336221,46.22108,-4.909887)"
       cx="23.447077"
       cy="6.457675"
       fx="23.447077"
       fy="6.457675"
       r="19.0625" />
    <linearGradient
       id="linearGradient4991-7">
      <stop
         stop-color="#ffffff"
         id="stop4993-2"
         offset="0" />
      <stop
         stop-color="#ffffff"
         stop-opacity="0"
         id="stop4995-6"
         offset="1" />
    </linearGradient>
    <radialGradient
       r="19.0625"
       fy="6.457675"
       fx="23.447077"
       cy="6.457675"
       cx="23.447077"
       gradientTransform="matrix(-1.314471,-0.01006312,-0.01022964,1.336221,46.22108,-4.909887)"
       gradientUnits="userSpaceOnUse"
       id="radialGradient3690"
       xlink:href="#linearGradient4991-7"
       inkscape:collect="always" />
  </defs>
  <metadata
     id="metadata4">image/svg+xmlSaveJakub Steinerhddhard drivesaveiostorehttp://jimmac.musichall.cz<rdf:RDF>
  <cc:Work
     rdf:about="">
    <dc:format>image/svg+xml</dc:format>
    <dc:type
       rdf:resource="http://purl.org/dc/dcmitype/StillImage" />
    <dc:title></dc:title>
  </cc:Work>
</rdf:RDF>
</metadata>
  <g
     id="g3171">
    <title
       id="title3173">Layer 1</title>
    <g
       id="layer2">
      <g
         display="inline"
         transform="matrix(2.411405e-2,0,0,1.929202e-2,45.48953,41.75228)"
         id="g5022">
        <rect
           opacity="0.402062"
           fill="url(#linearGradient5027)"
           fill-rule="nonzero"
           stroke-linecap="round"
           stroke-miterlimit="4"
           stroke-dashoffset="0"
           id="rect4173"
           width="1339.6335"
           height="478.35718"
           x="-1559.2523"
           y="-150.69685" />
        <path
           opacity="0.402062"
           fill="url(#radialGradient5029)"
           fill-rule="nonzero"
           stroke-linecap="round"
           marker-start="none"
           marker-mid="none"
           marker-end="none"
           stroke-miterlimit="4"
           stroke-dashoffset="0"
           d="m-219.618759,-150.680374c0,0 0,478.330795 0,478.330795c142.874168,0.900452 345.400223,-107.169678 345.400139,-239.19619c0,-132.026531 -159.436821,-239.13459 -345.400139,-239.134605z"
           id="path5058" />
        <path
           opacity="0.402062"
           fill="url(#radialGradient5031)"
           fill-rule="nonzero"
           stroke-linecap="round"
           marker-start="none"
           marker-mid="none"
           marker-end="none"
           stroke-miterlimit="4"
           stroke-dashoffset="0"
           id="path5018"
           d="m-1559.252319,-150.680374c0,0 0,478.330795 0,478.330795c-142.874146,0.900452 -345.400146,-107.169678 -345.400146,-239.19619c0,-132.026531 159.436768,-239.13459 345.400146,-239.134605z" />
      </g>
      <path
         fill="none"
         fill-rule="evenodd"
         stroke="#535353"
         stroke-width="2"
         stroke-linecap="round"
         stroke-linejoin="round"
         stroke-miterlimit="4"
         d="m11.28569,13.08763c-0.625,0 -1.03125,0.29018 -1.28125,0.84375c0,0 -6.46875,17.10356 -6.46875,17.10356c0,0 -0.25,0.671558 -0.25,1.781248c0,0 0,9.649971 0,9.649971c0,1.082611 0.65779,1.625 1.65625,1.625l38.5625,0c0.984848,0 1.59375,-0.718189 1.59375,-1.84375l0,-9.649971c0,0 0.105961,-0.77043 -0.09375,-1.312498l-6.71875,-17.19731c-0.184521,-0.51191 -0.636909,-0.9881 -1.125,-1l-25.875,0z"
         id="path4196" />
      <path
         fill="url(#linearGradient4234)"
         fill-rule="evenodd"
         stroke-width="1.020443px"
         d="m3.27359,32.121811l0.7646,-0.692211l37.609691,0.0625l3.46241,0.317289l0,10.43854c0,1.125572 -0.607021,1.84333 -1.591869,1.84333l-38.582991,0c-0.99846,0 -1.66184,-0.542049 -1.66184,-1.624668l0,-10.34478z"
         id="path4170" />
      <path
         fill="url(#radialGradient4250)"
         fill-rule="evenodd"
         stroke-width="1px"
         d="m3.54908,31.0394c-0.71428,1.464289 -0.00061,2.392859 1.03572,2.392859c0,0 39.000001,0 39.000001,0c1.119038,-0.023808 1.84523,-1.011898 1.42857,-2.142859l-6.714291,-17.2107c-0.184521,-0.5119 -0.654758,-0.988091 -1.14286,-1l-25.85714,0c-0.625,0 -1.03571,0.30357 -1.28571,0.85715c0,0 -6.46429,17.10355 -6.46429,17.10355z"
         id="path3093" />
      <rect
         fill="url(#linearGradient4209)"
         fill-rule="evenodd"
         stroke-width="2.409"
         stroke-linecap="round"
         stroke-linejoin="round"
         stroke-miterlimit="4"
         stroke-dashoffset="0"
         id="rect4174"
         width="17.625"
         height="5.5625"
         x="7.857996"
         y="36.299183" />
      <path
         opacity="0.811429"
         fill="url(#linearGradient4242)"
         fill-rule="evenodd"
         stroke-width="1px"
         d="m7.85799,41.861679c0,0 0,-4.011478 0,-4.011478c1.83553,3.179218 8.296499,4.011478 12.9375,4.011478c0,0 -12.9375,0 -12.9375,0z"
         id="path4194" />
      <path
         fill="#ffffff"
         fill-rule="evenodd"
         stroke-width="1px"
         d="m44.796162,30.753691c0.063519,1.249968 -0.414001,2.31584 -1.322121,2.343748c0,0 -38.118711,0 -38.118711,0c-1.28923,0 -1.86774,-0.324947 -2.08405,-0.868057c0.09176,0.944328 0.82582,1.649307 2.08405,1.649307c0,0 38.118711,0 38.118711,0c1.076008,-0.03307 1.752808,-1.42403 1.352169,-2.994789l-0.030048,-0.130209z"
         id="path4201" />
      <path
         opacity="0.691429"
         fill="url(#linearGradient4272)"
         fill-rule="evenodd"
         stroke-width="2"
         stroke-linecap="round"
         stroke-linejoin="round"
         marker-start="none"
         marker-mid="none"
         marker-end="none"
         stroke-miterlimit="4"
         stroke-dashoffset="0"
         d="m10.96875,15.28125c-0.04607,0.20032 -0.1875,0.3868 -0.1875,0.59375c0,0.948601 0.59098,1.789471 1.34375,2.59375c0.24027,-0.154079 0.36512,-0.35441 0.625,-0.5c-0.94031,-0.816 -1.5534,-1.716579 -1.78125,-2.6875zm26.65625,0c-0.228729,0.96962 -0.84201,1.872431 -1.78125,2.6875c0.274139,0.15358 0.403992,0.36824 0.65625,0.53125c0.757259,-0.80666 1.3125,-1.67304 1.3125,-2.625c0,-0.20695 -0.14159,-0.39343 -0.1875,-0.59375zm2.1875,8.4375c-0.613789,4.04011 -7.298611,7.25 -15.53125,7.25c-8.21225,0 -14.86015,-3.192791 -15.5,-7.21875c-0.03236,0.19713 -0.125,0.39188 -0.125,0.59375c0,4.317949 6.9891,7.84375 15.625,7.84375c8.635891,0 15.65625,-3.525801 15.65625,-7.84375c0,-0.212919 -0.08905,-0.41736 -0.125,-0.625z"
         id="path4211" />
      <path
         fill="#ffffff"
         fill-opacity="0.457627"
         fill-rule="evenodd"
         stroke-width="2"
         stroke-linecap="round"
         stroke-linejoin="round"
         marker-start="none"
         marker-mid="none"
         marker-end="none"
         stroke-miterlimit="4"
         stroke-dashoffset="0"
         id="path4224"
         d="m8.662059,30.89533a1.37002,1.01647 0 1 1 -2.74004,0a1.37002,1.01647 0 1 1 2.74004,0z" />
      <path
         fill="#ffffff"
         fill-opacity="0.457627"
         fill-rule="evenodd"
         stroke-width="2"
         stroke-linecap="round"
         stroke-linejoin="round"
         marker-start="none"
         marker-mid="none"
         marker-end="none"
         stroke-miterlimit="4"
         stroke-dashoffset="0"
         d="m42.540718,30.80694a1.37002,1.01647 0 1 1 -2.74004,0a1.37002,1.01647 0 1 1 2.74004,0z"
         id="path4226" />
      <path
         fill="none"
         fill-rule="evenodd"
         stroke="url(#linearGradient4260)"
         stroke-width="1"
         stroke-linecap="round"
         stroke-linejoin="round"
         stroke-miterlimit="4"
         id="path4252"
         d="m11.64252,13.54072c-0.6017,0 -0.9928,0.27936 -1.23347,0.81229c0,0 -6.41502,16.590719 -6.41502,16.590719c0,0 -0.24067,0.646521 -0.24067,1.714821c0,0 0,9.2901 0,9.2901c0,1.35474 0.44405,1.6269 1.59448,1.6269l37.686901,0c1.323128,0 1.534321,-0.316399 1.534321,-1.83749l0,-9.2901c0,0 0.102009,-0.74169 -0.090252,-1.26355l-6.593189,-16.80598c-0.17765,-0.49281 -0.550659,-0.82625 -1.02055,-0.83771l-25.22255,0z" />
      <path
         fill="none"
         fill-opacity="0.75"
         fill-rule="evenodd"
         stroke="#ffffff"
         stroke-width="1px"
         stroke-linecap="square"
         stroke-opacity="0.423729"
         id="path4282"
         d="m40.5,36.554161l0,5.020939" />
      <path
         fill="none"
         fill-opacity="0.75"
         fill-rule="evenodd"
         stroke="#ffffff"
         stroke-width="1px"
         stroke-linecap="square"
         stroke-opacity="0.423729"
         d="m38.5,36.613941l0,5.020939"
         id="path4284" />
      <path
         fill="none"
         fill-opacity="0.75"
         fill-rule="evenodd"
         stroke="#ffffff"
         stroke-width="1px"
         stroke-linecap="square"
         stroke-opacity="0.423729"
         id="path4286"
         d="m36.5,36.613941l0,5.020939" />
      <path
         fill="none"
         fill-opacity="0.75"
         fill-rule="evenodd"
         stroke="#ffffff"
         stroke-width="1px"
         stroke-linecap="square"
         stroke-opacity="0.423729"
         d="m34.5,36.613941l0,5.020939"
         id="path4288" />
      <path
         fill="none"
         fill-opacity="0.75"
         fill-rule="evenodd"
         stroke="#ffffff"
         stroke-width="1px"
         stroke-linecap="square"
         stroke-opacity="0.423729"
         id="path4290"
         d="m32.5,36.613941l0,5.020939" />
      <path
         fill="none"
         fill-opacity="0.75"
         fill-rule="evenodd"
         stroke="#ffffff"
         stroke-width="1px"
         stroke-linecap="square"
         stroke-opacity="0.423729"
         d="m30.5,36.613941l0,5.020939"
         id="path4292" />
      <path
         opacity="0.097143"
         fill="none"
         fill-opacity="0.75"
         fill-rule="evenodd"
         stroke="#000000"
         stroke-width="1px"
         stroke-linecap="square"
         d="m39.5,36.604061l0,5.020939"
         id="path4294" />
      <path
         opacity="0.097143"
         fill="none"
         fill-opacity="0.75"
         fill-rule="evenodd"
         stroke="#000000"
         stroke-width="1px"
         stroke-linecap="square"
         id="path4296"
         d="m37.5,36.663841l0,5.020939" />
      <path
         opacity="0.097143"
         fill="none"
         fill-opacity="0.75"
         fill-rule="evenodd"
         stroke="#000000"
         stroke-width="1px"
         stroke-linecap="square"
         d="m35.5,36.663841l0,5.020939"
         id="path4298" />
      <path
         opacity="0.097143"
         fill="none"
         fill-opacity="0.75"
         fill-rule="evenodd"
         stroke="#000000"
         stroke-width="1px"
         stroke-linecap="square"
         id="path4300"
         d="m33.5,36.663841l0,5.020939" />
      <path
         opacity="0.097143"
         fill="none"
         fill-opacity="0.75"
         fill-rule="evenodd"
         stroke="#000000"
         stroke-width="1px"
         stroke-linecap="square"
         d="m31.5,36.663841l0,5.020939"
         id="path4302" />
      <path
         opacity="0.44"
         fill="#ffffff"
         fill-rule="evenodd"
         stroke-width="1px"
         d="m7.875,36.3125l0,5.53125l12.5625,0l-12.21875,-0.34375l-0.34375,-5.1875z"
         id="path4572" />
      <path
         opacity="0.205714"
         fill="url(#linearGradient2553)"
         fill-rule="evenodd"
         stroke-width="0.933652"
         stroke-linecap="square"
         stroke-linejoin="round"
         marker-start="none"
         marker-mid="none"
         marker-end="none"
         stroke-miterlimit="4"
         stroke-dashoffset="0"
         stroke-opacity="0.423729"
         d="m39.749992,23.781233a15.437498,7.093746 0 1 1 -30.874994,0a15.437498,7.093746 0 1 1 30.874994,0z"
         id="path2545" />
    </g>
    <g
       id="layer1"
       transform="translate(4.4921135,-1.8170346)">
      <path
         stroke-miterlimit="10"
         id="path8660"
         d="M 41.842499,26 A 17.681539,6.3783054 0 1 1 6.47942,26 17.681539,6.3783054 0 1 1 41.842499,26 z"
         style="opacity:0.14117599;fill:url(#svg_1);fill-rule:evenodd;stroke-miterlimit:10;stroke-dashoffset:0;marker-start:none;marker-mid:none;marker-end:none"
         inkscape:connector-curvature="0" />
      <path
         stroke-miterlimit="4"
         id="path1432"
         d="M 3.20345,25.835199 C 2.17295,-5.385341 28.7416,-0.45112 28.582399,15.7887 l 7.312902,0 -11.377602,12.986 -11.932301,-12.986 c 0,0 7.5415,0 7.5415,0 C 20.583899,4.81932 3.409228,1.61003 3.203448,25.835199 z"
         style="fill:url(#linearGradient6907);fill-rule:nonzero;stroke:url(#linearGradient6931);stroke-width:1;stroke-miterlimit:4;stroke-dashoffset:0;marker-start:none;marker-mid:none;marker-end:none"
         inkscape:connector-curvature="0" />
      <path
         stroke-miterlimit="10"
         d="m 7.66421,9.1041 c 4.74219,-9.14413 20.458089,-6.38656 20.097391,7.475299 l 6.317398,0 c 0,0 -9.565899,10.957401 -9.565899,10.957401 L 14.416701,16.579399 c 0,0 6.4566,0 6.4566,0 C 21.145001,5.00416 10.922301,5.53452 7.66421,9.1041 z"
         id="path2177"
         style="opacity:0.47159101;fill:none;stroke:url(#linearGradient1764);stroke-width:0.99999899;stroke-miterlimit:10;stroke-dashoffset:0;marker-start:none;marker-mid:none;marker-end:none"
         inkscape:connector-curvature="0" />
      <path
         stroke-miterlimit="10"
         id="path4989"
         d="m 34.7672,16.211599 -1.9842,2.5457 c -5.410101,-1.5163 -7.8862,2.729401 -15.6737,1.7318 l -3.8613,-4.409 7.1865,0.0828 C 20.4832,4.31646 8.34431,4.99897 5.02927,13.6278 8.83722,-1.26112 27.893299,0.80641 28.2833,16.1141 l 6.4839,0.0975 z"
         style="opacity:0.49431799;fill:url(#radialGradient4997);fill-rule:nonzero;stroke-width:1;stroke-miterlimit:10;stroke-dashoffset:0;marker-start:none;marker-mid:none;marker-end:none"
         inkscape:connector-curvature="0" />
    </g>
    <g
       transform="matrix(0.99974927,-0.02239192,0.02239192,0.99974927,3.4069093,-3.2464436)"
       id="svg_2">
      <path
         id="svg_3"
         stroke-miterlimit="10"
         d="m 39.208099,29.627419 a 17.681542,6.3783053 0 1 1 -35.363083,0 17.681542,6.3783053 0 1 1 35.363083,0 z"
         style="opacity:0.14117599;fill:url(#radialGradient3645);fill-rule:evenodd;stroke-miterlimit:10;stroke-dashoffset:0;marker-start:none;marker-mid:none;marker-end:none"
         inkscape:connector-curvature="0" />
      <path
         id="svg_4"
         stroke-miterlimit="4"
         d="M 0.569046,29.462616 C -0.461456,-1.757923 26.107193,3.176296 25.947998,19.416115 l 7.312897,0 -11.377594,12.986 -11.932304,-12.986 c 0,0 7.541496,0 7.541496,0 C 17.949494,8.446737 0.774826,5.237446 0.569046,29.462616 z"
         style="fill:url(#linearGradient3647);fill-rule:nonzero;stroke:url(#linearGradient3649);stroke-width:1;stroke-miterlimit:4;stroke-dashoffset:0;marker-start:none;marker-mid:none;marker-end:none"
         inkscape:connector-curvature="0" />
      <path
         id="svg_5"
         stroke-miterlimit="10"
         d="m 5.0298,12.731518 c 4.742195,-9.144131 20.458099,-6.38656 20.097397,7.4753 l 6.317398,0 c 0,0 -9.565903,10.957397 -9.565903,10.957397 L 11.782295,20.206818 c 0,0 6.456596,0 6.456596,0 C 18.510589,8.631577 8.287895,9.161938 5.0298,12.731518 z"
         style="opacity:0.47159101;fill:none;stroke:url(#linearGradient3651);stroke-width:0.99999899;stroke-miterlimit:10;stroke-dashoffset:0;marker-start:none;marker-mid:none;marker-end:none"
         inkscape:connector-curvature="0" />
      <path
         id="svg_6"
         stroke-miterlimit="10"
         d="m 32.132797,19.839016 -1.984207,2.5457 c -5.410095,-1.5163 -7.8862,2.729401 -15.673698,1.7318 l -3.861298,-4.409 7.186501,0.0828 C 17.848786,7.943877 5.7099,8.626387 2.394867,17.255219 6.202812,2.366297 25.258896,4.433827 25.648895,19.741517 l 6.483902,0.0975 z"
         style="opacity:0.49431799;fill:url(#radialGradient3653);fill-rule:nonzero;stroke-width:1;stroke-miterlimit:10;stroke-dashoffset:0;marker-start:none;marker-mid:none;marker-end:none"
         inkscape:connector-curvature="0" />
    </g>
    <g
       transform="matrix(0.99974927,-0.02239192,0.02239192,0.99974927,-0.62109536,-1.3189106)"
       id="svg_2-0">
      <path
         id="svg_3-1"
         stroke-miterlimit="10"
         d="m 39.208099,29.627419 a 17.681542,6.3783053 0 1 1 -35.363083,0 17.681542,6.3783053 0 1 1 35.363083,0 z"
         style="opacity:0.14117599;fill:url(#radialGradient3645-5);fill-rule:evenodd;stroke-miterlimit:10;stroke-dashoffset:0;marker-start:none;marker-mid:none;marker-end:none"
         inkscape:connector-curvature="0" />
      <path
         id="svg_4-6"
         stroke-miterlimit="4"
         d="M 0.569046,29.462616 C -0.461456,-1.757923 26.107193,3.176296 25.947998,19.416115 l 7.312897,0 -11.377594,12.986 -11.932304,-12.986 c 0,0 7.541496,0 7.541496,0 C 17.949494,8.446737 0.774826,5.237446 0.569046,29.462616 z"
         style="fill:url(#linearGradient3647-0);fill-rule:nonzero;stroke:url(#linearGradient3649-6);stroke-width:1;stroke-miterlimit:4;stroke-dashoffset:0;marker-start:none;marker-mid:none;marker-end:none"
         inkscape:connector-curvature="0" />
      <path
         id="svg_5-5"
         stroke-miterlimit="10"
         d="m 5.0298,12.731518 c 4.742195,-9.144131 20.458099,-6.38656 20.097397,7.4753 l 6.317398,0 c 0,0 -9.565903,10.957397 -9.565903,10.957397 L 11.782295,20.206818 c 0,0 6.456596,0 6.456596,0 C 18.510589,8.631577 8.287895,9.161938 5.0298,12.731518 z"
         style="opacity:0.47159101;fill:none;stroke:url(#linearGradient3651-2);stroke-width:0.99999899;stroke-miterlimit:10;stroke-dashoffset:0;marker-start:none;marker-mid:none;marker-end:none"
         inkscape:connector-curvature="0" />
      <path
         id="svg_6-7"
         stroke-miterlimit="10"
         d="m 32.132797,19.839016 -1.984207,2.5457 c -5.410095,-1.5163 -7.8862,2.729401 -15.673698,1.7318 l -3.861298,-4.409 7.186501,0.0828 C 17.848786,7.943877 5.7099,8.626387 2.394867,17.255219 6.202812,2.366297 25.258896,4.433827 25.648895,19.741517 l 6.483902,0.0975 z"
         style="opacity:0.49431799;fill:url(#radialGradient3690);fill-rule:nonzero;stroke-width:1;stroke-miterlimit:10;stroke-dashoffset:0;marker-start:none;marker-mid:none;marker-end:none"
         inkscape:connector-curvature="0" />
    </g>
  </g>
</svg>
